<svg xmlns="http://www.w3.org/2000/svg" xmlns:xlink="http://www.w3.org/1999/xlink" viewBox="0,0,256,256" width="200px" height="200px" fill-rule="nonzero"><g fill="none" fill-rule="nonzero" stroke="none" stroke-width="1" stroke-linecap="butt" stroke-linejoin="miter" stroke-miterlimit="10" stroke-dasharray="" stroke-dashoffset="0" font-family="none" font-weight="none" font-size="none" text-anchor="none" style="mix-blend-mode: normal"><g transform="scale(2.56,2.56)"><path d="M36.52,12.01c-3.03,0 -5.49,2.43 -5.54,5.46c-0.35,19.49 -3.88,38.82 -10.49,57.05c-0.85,2.34 0.85,4.82 3.14,4.54c7.75,-0.92 14.99,-2.54 20.5,-5.87c1.14,-0.69 2.55,-0.39 3.33,0.74c3.47,5.05 8.5,10.46 14.46,16.12c1.61,1.53 4.14,0.79 4.88,-1.42c7.69,-22.8 11.8,-46.8 12.2,-70.98c0.05,-3.1 -2.46,-5.65 -5.56,-5.65h-36.92z" fill="#fec260"></path><circle cx="41.92" cy="44.03" r="5.5" fill="#ffffff"></circle><circle cx="60.84" cy="45.69" r="5.5" fill="#ffffff"></circle><path d="M47.48,50.04c-0.31,-0.03 -0.56,0.23 -0.54,0.54c0.13,1.92 1.64,3.51 3.61,3.69c1.97,0.18 3.74,-1.13 4.2,-3c0.07,-0.3 -0.13,-0.6 -0.44,-0.63z" fill="#4a254b"></path><circle cx="41.92" cy="44.03" r="2.5" fill="#4a254b"></circle><circle cx="60.84" cy="45.69" r="2.5" fill="#4a254b"></circle></g></g></svg>